<svg xmlns="http://www.w3.org/2000/svg" id="Layer_1" data-name="Layer 1" viewBox="0 0 252.08 252.07"><defs><style>.cls-1{fill:#ffdc39}</style></defs><path class="cls-1" d="M110.6 145.4l30.47 30.46a8.73 8.73 0 0010.31 1.52l36.51-19.6a8.73 8.73 0 018.6.19l53.26 31.6a8.72 8.72 0 013.55 11c-4.55 10.36-12.83 29.34-16.12 37.73A11.78 11.78 0 01234 243c-35.5 30.77-106.12-6.72-160.18-60.78S-17.72 57.48 13.05 22a11.58 11.58 0 014.63-3.16c8.39-3.3 27.37-11.59 37.73-16.14a8.72 8.72 0 0111 3.55L98 59.52a8.73 8.73 0 01.19 8.6l-19.6 36.5a8.73 8.73 0 001.52 10.31zm143.4-4.8h-25.17A113.57 113.57 0 00115.4 27.17V2C191.84 2 254 64.16 254 140.6z" transform="translate(-1.96 -1.96)"/><path class="cls-1" d="M205 140.6h-25.19a64.48 64.48 0 00-64.41-64.41V51a89.72 89.72 0 0189.6 89.6z" transform="translate(-1.96 -1.96)"/></svg>